<svg xmlns="http://www.w3.org/2000/svg" xmlns:xlink="http://www.w3.org/1999/xlink" width="1080" zoomAndPan="magnify" viewBox="0 0 810 809.999993" height="1080" preserveAspectRatio="xMidYMid meet" version="1.0"><defs><g/><clipPath id="da1b812eae"><path d="M 123.164062 381.449219 L 414.914062 381.449219 L 414.914062 673.199219 L 123.164062 673.199219 Z M 123.164062 381.449219 " clip-rule="nonzero"/></clipPath><clipPath id="458e0ad5b0"><path d="M 372.898438 158.390625 L 664.648438 158.390625 L 664.648438 450.140625 L 372.898438 450.140625 Z M 372.898438 158.390625 " clip-rule="nonzero"/></clipPath><clipPath id="502dc137c5"><path d="M 456.300781 241.792969 L 581.269531 241.792969 L 581.269531 366.761719 L 456.300781 366.761719 Z M 456.300781 241.792969 " clip-rule="nonzero"/></clipPath><clipPath id="12f9ba38c7"><path d="M 518.785156 241.792969 C 484.277344 241.792969 456.300781 269.769531 456.300781 304.277344 C 456.300781 338.789062 484.277344 366.761719 518.785156 366.761719 C 553.296875 366.761719 581.269531 338.789062 581.269531 304.277344 C 581.269531 269.769531 553.296875 241.792969 518.785156 241.792969 Z M 518.785156 241.792969 " clip-rule="nonzero"/></clipPath><clipPath id="bf4edd883d"><path d="M 206.566406 464.851562 L 331.535156 464.851562 L 331.535156 589.820312 L 206.566406 589.820312 Z M 206.566406 464.851562 " clip-rule="nonzero"/></clipPath><clipPath id="3535f00917"><path d="M 269.050781 464.851562 C 234.542969 464.851562 206.566406 492.828125 206.566406 527.335938 C 206.566406 561.84375 234.542969 589.820312 269.050781 589.820312 C 303.558594 589.820312 331.535156 561.84375 331.535156 527.335938 C 331.535156 492.828125 303.558594 464.851562 269.050781 464.851562 Z M 269.050781 464.851562 " clip-rule="nonzero"/></clipPath></defs><rect x="-81" width="972" fill="#ffffff" y="-80.999999" height="971.999992" fill-opacity="1"/><rect x="-81" width="972" fill="#000000" y="-80.999999" height="971.999992" fill-opacity="1"/><g fill="#ffffff" fill-opacity="1"><g transform="translate(135.424552, 345.222638)"><g><path d="M 15.734375 0 L 15.734375 -3.375 L 31.46875 -7.875 L 31.46875 -131.296875 L 7.875 -114.65625 L 3.375 -120.28125 L 44.28125 -157.375 L 68.5625 -157.375 L 68.5625 -7.875 L 84.3125 -3.375 L 84.3125 0 Z M 15.734375 0 "/></g></g></g><g fill="#ffffff" fill-opacity="1"><g transform="translate(221.972753, 345.222638)"><g><path d="M 52.828125 0 L 52.828125 -3.375 L 68.5625 -7.875 L 68.5625 -41.59375 L 4.5 -41.59375 L 0 -48.328125 L 84.3125 -159.609375 L 105.65625 -159.609375 L 105.65625 -51.703125 L 129.265625 -51.703125 L 129.265625 -41.59375 L 105.65625 -41.59375 L 105.65625 -7.875 L 121.40625 -3.375 L 121.40625 0 Z M 12.359375 -51.703125 L 68.5625 -51.703125 L 68.5625 -125.890625 Z M 12.359375 -51.703125 "/></g></g></g><g fill="#ffffff" fill-opacity="1"><g transform="translate(428.81388, 607.340615)"><g><path d="M 56.859375 2.3125 C 49.992188 2.3125 44.253906 0.00390625 39.640625 -4.609375 C 37.703125 -6.660156 36.015625 -8.96875 34.578125 -11.53125 C 33.859375 -9.269531 32.628906 -7.21875 30.890625 -5.375 C 26.992188 -1.28125 21.304688 0.765625 13.828125 0.765625 L 12.296875 0.765625 L 12.296875 -102.953125 L 3.078125 -105.265625 L 3.078125 -107.578125 L 23.046875 -107.578125 C 32.265625 -107.578125 36.875 -102.960938 36.875 -93.734375 L 36.875 -73 C 38.519531 -74.320312 40.109375 -75.34375 41.640625 -76.0625 C 45.328125 -78.113281 49.628906 -79.140625 54.546875 -79.140625 C 64.898438 -79.140625 73.125 -75.628906 79.21875 -68.609375 C 85.3125 -61.597656 88.359375 -51.535156 88.359375 -38.421875 C 88.359375 -29.710938 86.972656 -22.304688 84.203125 -16.203125 C 81.441406 -10.109375 77.703125 -5.5 72.984375 -2.375 C 68.273438 0.75 62.898438 2.3125 56.859375 2.3125 Z M 50.71875 -3.078125 C 53.988281 -3.078125 56.722656 -5.660156 58.921875 -10.828125 C 61.128906 -16.003906 62.234375 -25.203125 62.234375 -38.421875 C 62.234375 -52.242188 61.03125 -61.71875 58.625 -66.84375 C 56.21875 -71.96875 52.8125 -74.53125 48.40625 -74.53125 C 45.738281 -74.53125 43.023438 -73.503906 40.265625 -71.453125 C 39.441406 -70.835938 38.3125 -69.816406 36.875 -68.390625 L 36.875 -15.375 C 37.800781 -13.007812 38.929688 -10.957031 40.265625 -9.21875 C 43.335938 -5.125 46.820312 -3.078125 50.71875 -3.078125 Z M 50.71875 -3.078125 "/></g></g></g><g fill="#ffffff" fill-opacity="1"><g transform="translate(523.319693, 607.340615)"><g><path d="M 6.140625 -2.3125 L 15.375 -4.609375 L 15.375 -72.21875 L 6.140625 -74.53125 L 6.140625 -76.84375 L 26.125 -76.84375 C 35.34375 -76.84375 39.953125 -72.226562 39.953125 -63 L 39.953125 -4.609375 L 49.171875 -2.3125 L 49.171875 0 L 6.140625 0 Z M 26.125 -86.0625 C 23.050781 -86.0625 20.488281 -87.082031 18.4375 -89.125 C 16.382812 -91.175781 15.359375 -93.738281 15.359375 -96.8125 C 15.359375 -99.882812 16.382812 -102.445312 18.4375 -104.5 C 20.488281 -106.550781 23.050781 -107.578125 26.125 -107.578125 C 29.195312 -107.578125 31.753906 -106.550781 33.796875 -104.5 C 35.847656 -102.445312 36.875 -99.882812 36.875 -96.8125 C 36.875 -93.738281 35.847656 -91.175781 33.796875 -89.125 C 31.753906 -87.082031 29.195312 -86.0625 26.125 -86.0625 Z M 26.125 -86.0625 "/></g></g></g><g fill="#ffffff" fill-opacity="1"><g transform="translate(575.566805, 607.340615)"><g><path d="M 42.265625 2.3125 C 35.910156 2.3125 30.222656 0.925781 25.203125 -1.84375 C 22.742188 -3.175781 20.742188 -4.609375 19.203125 -6.140625 C 17.566406 -3.890625 15.773438 -2.148438 13.828125 -0.921875 C 12.910156 -0.304688 11.882812 0.253906 10.75 0.765625 L 6.921875 0.765625 L 6.921875 -25.359375 L 13.0625 -25.359375 C 14.394531 -21.054688 16.34375 -17.0625 18.90625 -13.375 C 24.332031 -5.476562 31.09375 -1.53125 39.1875 -1.53125 C 43.488281 -1.53125 46.738281 -2.582031 48.9375 -4.6875 C 51.144531 -6.789062 52.25 -9.835938 52.25 -13.828125 C 52.25 -17.210938 50.738281 -20.054688 47.71875 -22.359375 C 44.695312 -24.660156 39.957031 -27.503906 33.5 -30.890625 C 27.96875 -33.648438 23.484375 -36.128906 20.046875 -38.328125 C 16.617188 -40.535156 13.703125 -43.304688 11.296875 -46.640625 C 8.890625 -49.972656 7.6875 -53.890625 7.6875 -58.390625 C 7.6875 -64.535156 10.320312 -69.53125 15.59375 -73.375 C 20.875 -77.21875 28.992188 -79.140625 39.953125 -79.140625 C 45.378906 -79.140625 50.398438 -77.707031 55.015625 -74.84375 C 57.265625 -73.507812 59.210938 -72.125 60.859375 -70.6875 C 62.191406 -72.53125 63.984375 -74.269531 66.234375 -75.90625 C 67.972656 -76.9375 69 -77.503906 69.3125 -77.609375 L 73.140625 -77.609375 L 73.140625 -51.484375 L 67 -51.484375 C 65.46875 -55.890625 63.570312 -59.832031 61.3125 -63.3125 C 56.1875 -71.300781 50.09375 -75.296875 43.03125 -75.296875 C 40.257812 -75.296875 37.898438 -74.269531 35.953125 -72.21875 C 34.015625 -70.175781 33.046875 -67.617188 33.046875 -64.546875 C 33.046875 -60.648438 34.679688 -57.394531 37.953125 -54.78125 C 41.234375 -52.164062 46.203125 -49.171875 52.859375 -45.796875 C 58.285156 -43.023438 62.613281 -40.585938 65.84375 -38.484375 C 69.070312 -36.390625 71.835938 -33.804688 74.140625 -30.734375 C 76.453125 -27.660156 77.609375 -24.078125 77.609375 -19.984375 C 77.609375 -5.117188 65.828125 2.3125 42.265625 2.3125 Z M 42.265625 2.3125 "/></g></g></g><g clip-path="url(#da1b812eae)"><path stroke-linecap="butt" transform="matrix(0.75, 0, 0, 0.75, 123.162669, 381.447452)" fill="none" stroke-linejoin="miter" d="M 0.00185759 0.00235565 L 389.033102 0.00235565 L 389.033102 389.0336 L 0.00185759 389.0336 Z M 0.00185759 0.00235565 " stroke="#ffffff" stroke-width="12" stroke-opacity="1" stroke-miterlimit="4"/></g><g clip-path="url(#458e0ad5b0)"><path stroke-linecap="butt" transform="matrix(0.75, 0, 0, 0.75, 372.898374, 158.390167)" fill="none" stroke-linejoin="miter" d="M 0.0000842133 0.000610358 L 389.031329 0.000610358 L 389.031329 389.031855 L 0.0000842133 389.031855 Z M 0.0000842133 0.000610358 " stroke="#ffffff" stroke-width="12" stroke-opacity="1" stroke-miterlimit="4"/></g><g clip-path="url(#502dc137c5)"><g clip-path="url(#12f9ba38c7)"><path fill="#3f3783" d="M 456.300781 241.792969 L 581.269531 241.792969 L 581.269531 366.761719 L 456.300781 366.761719 Z M 456.300781 241.792969 " fill-opacity="1" fill-rule="nonzero"/></g></g><g clip-path="url(#bf4edd883d)"><g clip-path="url(#3535f00917)"><path fill="#da3636" d="M 206.566406 464.851562 L 331.535156 464.851562 L 331.535156 589.820312 L 206.566406 589.820312 Z M 206.566406 464.851562 " fill-opacity="1" fill-rule="nonzero"/></g></g></svg>